<?xml version="1.0" encoding="utf-8"?>
<svg version="1.1" id="Layer_1" x="0px" y="0px" viewBox="0 0 560 560" style="enable-background:new 0 0 511.974 511.974;" xmlns="http://www.w3.org/2000/svg">
  <g transform="matrix(1, 0, 0, 1, 23.638985, 24.390987)">
    <g>
      <path style="fill:#ED5564;" d="M 450.867 185.987 C 439.039 158.035 422.135 132.943 400.572 111.397 C 379.027 89.851 353.934 72.93 325.998 61.118 C 297.062 48.869 266.322 42.666 234.652 42.666 C 202.974 42.666 172.249 48.869 143.313 61.118 C 115.369 72.93 90.269 89.851 68.723 111.397 C 47.177 132.943 30.264 158.036 18.445 185.987 C 6.203 214.924 0 245.656 0 277.326 C 0 308.997 6.203 339.729 18.444 368.666 C 30.264 396.602 47.177 421.71 68.723 443.256 C 90.268 464.801 115.369 481.707 143.313 493.534 C 172.249 505.767 202.974 511.971 234.652 511.971 C 266.322 511.971 297.062 505.768 325.998 493.534 C 353.935 481.707 379.027 464.801 400.572 443.256 C 422.134 421.71 439.039 396.602 450.867 368.666 C 463.1 339.729 469.304 308.997 469.304 277.326 C 469.303 245.656 463.1 214.924 450.867 185.987 Z"/>
      <path style="fill:#E6E9ED;" d="M 347.779 164.192 C 317.561 133.975 277.391 117.335 234.652 117.335 C 191.912 117.335 151.735 133.975 121.517 164.192 C 91.299 194.409 74.66 234.595 74.66 277.326 C 74.66 320.058 91.3 360.228 121.517 390.461 C 151.734 420.679 191.912 437.318 234.652 437.318 C 277.391 437.318 317.561 420.678 347.779 390.461 C 378.011 360.229 394.651 320.059 394.651 277.326 C 394.651 234.594 378.011 194.409 347.779 164.192 Z"/>
      <path style="fill:#ED5564;" d="M 234.652 191.987 C 187.6 191.987 149.32 230.266 149.32 277.326 C 149.32 324.371 187.599 362.65 234.652 362.65 C 281.704 362.65 319.983 324.371 319.983 277.326 C 319.983 230.266 281.704 191.987 234.652 191.987 Z"/>
    </g>
    <g>
      <path style="fill:#F6BB42;" d="M 511.379 82.555 C 510.02 78.696 506.567 75.946 502.489 75.493 L 443.086 68.885 L 436.492 9.497 C 436.039 5.419 433.289 1.966 429.415 0.606 C 425.556 -0.753 421.244 0.231 418.338 3.122 L 342.92 78.556 C 341.186 80.29 340.092 82.587 339.858 85.04 L 334.405 139.928 C 333.999 144.084 336.046 148.099 339.655 150.208 C 341.327 151.177 343.171 151.646 345.03 151.646 C 347.186 151.646 349.342 151.005 351.185 149.693 L 388.964 123.007 L 362.277 160.802 C 359.871 164.208 359.668 168.707 361.777 172.317 C 363.699 175.629 367.215 177.614 370.98 177.614 C 371.339 177.614 371.683 177.598 372.042 177.567 L 426.945 172.129 C 429.398 171.879 431.679 170.801 433.428 169.051 L 508.846 93.634 C 511.754 90.742 512.722 86.43 511.379 82.555 Z"/>
      <path style="fill:#434A54;" d="M 234.652 287.982 C 231.918 287.982 229.191 286.951 227.106 284.857 C 222.942 280.701 222.942 273.952 227.114 269.78 L 259.955 236.938 C 264.119 232.766 270.877 232.766 275.048 236.938 C 279.204 241.094 279.204 247.859 275.048 252.015 L 242.191 284.857 C 240.112 286.951 237.378 287.982 234.652 287.982 Z"/>
      <path style="fill:#FFCE54;" d="M 440.976 71.009 C 439.164 69.197 435.96 67.041 430.977 67.041 C 421.165 67.041 402.525 75.649 333.216 138.084 C 295.593 171.988 260.392 206.33 260.048 206.674 C 257.993 208.69 256.83 211.44 256.83 214.315 L 256.83 244.469 C 256.83 250.36 261.611 255.141 267.501 255.141 L 297.671 255.141 C 300.546 255.141 303.296 253.985 305.296 251.922 C 305.671 251.547 343.138 213.158 378.495 173.629 C 399.384 150.271 415.493 131.053 426.383 116.491 C 433.195 107.383 437.945 100.164 440.913 94.383 C 442.883 90.555 448.867 78.899 440.976 71.009 Z"/>
    </g>
  </g>
</svg>