<?xml version="1.0" encoding="utf-8"?>
<svg version="1.1" x="0px" y="0px" enable-background="new 0 0 1600 1000" viewBox="0 0 1000 1600" xmlns="http://www.w3.org/2000/svg" xmlns:xlink="http://www.w3.org/1999/xlink">
  <pattern x="379.055" y="846.958" width="490.25" height="490.25" patternUnits="userSpaceOnUse" id="Motivo_nuevo" viewBox="0 -490.25 490.25 490.25" overflow="visible">
    <g>
      <polygon fill="none" points="0,-490.25 490.25,-490.25 490.25,0 0,0 &#9;&#9;"/>
      <path fill="#FFFFFF" d="M180.657-490.25c0.304,0.519,0.681,1.01,0.886,1.564c0.152,0.41,0.223,1.246,0.085,1.303&#10;&#9;&#9;&#9;c-0.673,0.279-1.429,0.475-2.151,0.46c-0.311-0.007-0.827-0.566-0.871-0.922c-0.098-0.786,0.046-1.602,0.091-2.405&#10;&#9;&#9;&#9;C179.35-490.25,180.004-490.25,180.657-490.25z"/>
      <path fill="#FFFFFF" d="M490.25-102.707c-0.335-0.131-0.813-0.167-0.974-0.412c-0.318-0.485-0.461-1.085-0.677-1.638&#10;&#9;&#9;&#9;c0.55-0.134,1.101-0.268,1.65-0.401C490.25-104.342,490.25-103.524,490.25-102.707z"/>
      <path fill="#FFFFFF" d="M0-105.403c0.848-0.12,1.333,0.227,1.283,1.103c-0.043,0.766-0.345,1.33-1.283,1.104&#10;&#9;&#9;&#9;C0-103.933,0-104.668,0-105.403z"/>
      <path fill="#FFFFFF" d="M122.806-163.377c0.861,0.5,1.727,0.993,2.577,1.511c0.118,0.072,0.214,0.268,0.224,0.413&#10;&#9;&#9;&#9;c0.068,0.964,0.178,1.932,0.141,2.894c-0.038,0.976-1.816,2.096-2.861,1.89c-1.742-0.342-2.334-1.189-2.083-2.917&#10;&#9;&#9;&#9;c0.036-0.25-0.088-0.527-0.154-0.788c-0.144-0.568-0.597-1.338-0.381-1.655c0.347-0.51,1.125-0.736,1.742-1.042&#10;&#9;&#9;&#9;c0.163-0.081,0.4-0.013,0.603-0.013C122.677-163.183,122.742-163.279,122.806-163.377z"/>
      <path fill="#FFFFFF" d="M167.349-262.934c-0.956-0.623-1.721-1.074-2.429-1.602c-0.348-0.258-0.54-0.73-0.893-0.979&#10;&#9;&#9;&#9;c-0.873-0.615-0.873-1.548-0.346-2.115c0.387-0.416,1.371-0.461,2.048-0.367c0.626,0.088,1.36,0.443,1.754,0.922&#10;&#9;&#9;&#9;c0.669,0.811,1.22,1.773,1.553,2.764C169.109-264.094,168.063-263.5,167.349-262.934z"/>
      <path fill="#FFFFFF" d="M410.513-22.612c1.121-0.018,2.188,0.021,2.251,1.564c0.007,0.172,0.281,0.372,0.474,0.492&#10;&#9;&#9;&#9;c0.997,0.623,1.104,1.115,0.436,2.148c-0.414,0.639-1.569,0.878-2.161,0.328c-0.915-0.851-1.772-1.773-2.577-2.729&#10;&#9;&#9;&#9;c-0.271-0.323-0.544-0.974-0.396-1.239c0.179-0.319,0.797-0.416,1.242-0.553C410.006-22.669,410.268-22.612,410.513-22.612z"/>
      <path fill="#FFFFFF" d="M27.67-87.161c0.292-0.686,0.409-1.738,0.914-1.979c1.074-0.514,1.621,0.482,2.099,1.323&#10;&#9;&#9;&#9;c0.135,0.239,0.392,0.407,0.583,0.616c0.494,0.542,0.549,1.065-0.07,1.563c-0.185,0.148-0.414,0.284-0.52,0.481&#10;&#9;&#9;&#9;c-0.264,0.488-0.196,1.402-1.123,1.037c-0.848-0.334-1.797-0.705-1.631-1.955c0.042-0.319,0.006-0.649,0.006-0.976&#10;&#9;&#9;&#9;C27.842-87.088,27.756-87.125,27.67-87.161z"/>
      <path fill="#FFFFFF" d="M104.574-192.588c1.414-0.172,2.057,0.931,2.737,1.685c0.734,0.816,0.03,2.153-1.077,2.211&#10;&#9;&#9;&#9;c-1.149,0.06-2.501,0.36-2.563-1.495c-0.002-0.075-0.042-0.171-0.098-0.219c-0.496-0.437-1.15-0.938-0.598-1.599&#10;&#9;&#9;&#9;C103.29-192.382,104.027-192.405,104.574-192.588z"/>
      <path fill="#FFFFFF" d="M423.967-244.215c1.028-0.854,2.244-0.602,2.81,0.684c0.504,1.146-0.786,1.342-1.208,1.991&#10;&#9;&#9;&#9;c-0.112,0.174-0.918,0.158-1.143-0.052c-0.697-0.651-1.293-1.421-1.867-2.189c-0.113-0.15,0.042-0.501,0.074-0.76&#10;&#9;&#9;&#9;C423.03-244.443,423.428-244.347,423.967-244.215z"/>
      <path fill="#FFFFFF" d="M276.11-331.125c-0.345,0.37-0.82,1.166-1.521,1.549c-0.677,0.369-0.959-0.373-0.998-0.968&#10;&#9;&#9;&#9;c-0.051-0.759,0.079-1.534-0.807-1.979c-0.155-0.078-0.224-0.662-0.099-0.875c0.15-0.259,0.535-0.486,0.845-0.525&#10;&#9;&#9;&#9;C274.495-334.043,276.075-332.563,276.11-331.125z"/>
      <path fill="#FFFFFF" d="M40.781-440.727c1.05,0.757,1.999,1.38,2.854,2.112c0.152,0.13-0.025,1.015-0.158,1.043&#10;&#9;&#9;&#9;c-0.597,0.128-1.258,0.185-1.848,0.052c-0.624-0.141-1.242-0.456-1.766-0.831c-0.33-0.235-0.759-0.923-0.662-1.057&#10;&#9;&#9;&#9;C39.54-439.871,40.088-440.181,40.781-440.727z"/>
      <path fill="#FFFFFF" d="M80.258-430.222c0.479,0.422,1.311,0.804,1.363,1.273c0.111,0.993-0.943,1.761-1.913,1.732&#10;&#9;&#9;&#9;c-1.048-0.03-1.298-0.671-1.266-1.55C78.482-429.811,79.163-430.023,80.258-430.222z"/>
      <path fill="#FFFFFF" d="M211.65-380.598c0.994-0.689,2.104-1.123,3.329-0.756c0.306,0.092,0.573,0.813,0.57,1.244&#10;&#9;&#9;&#9;c-0.001,0.254-0.613,0.76-0.871,0.713c-1.019-0.184-2.007-0.542-3.006-0.836C211.665-380.354,211.658-380.476,211.65-380.598z"/>
      <path fill="#FFFFFF" d="M262.654-238.313c0.579,0.546,1.329,1.16,1.284,1.224c-0.456,0.658-1.041,1.227-1.59,1.819&#10;&#9;&#9;&#9;c-0.485-0.58-0.971-1.16-1.456-1.74C261.409-237.393,261.927-237.775,262.654-238.313z"/>
      <path fill="#FFFFFF" d="M115.78-108.964c0.603,0.625,1.187,0.958,1.296,1.406c0.177,0.731-0.751,1.758-1.382,1.722&#10;&#9;&#9;&#9;c-1.031-0.06-1.316-0.895-1.239-1.642C114.502-107.929,115.171-108.314,115.78-108.964z"/>
      <path fill="#FFFFFF" d="M6.304-485.897c0.179-0.39,0.313-1.103,0.744-1.464c0.248-0.209,1.069,0.015,1.461,0.289&#10;&#9;&#9;&#9;c0.569,0.396,1.306,0.941,0.808,1.789c-0.145,0.245-0.839,0.326-1.223,0.234C7.53-485.185,7.02-485.543,6.304-485.897z"/>
      <path fill="#FFFFFF" d="M253.243-241.965c0.325,0,0.713-0.111,0.962,0.027c0.335,0.187,0.778,0.567,0.775,0.862&#10;&#9;&#9;&#9;c-0.002,0.296-0.448,0.752-0.781,0.844c-0.531,0.146-1.159,0.16-1.691,0.022c-0.417-0.109-0.994-0.477-1.076-0.827&#10;&#9;&#9;&#9;c-0.169-0.727,0.434-0.945,1.078-0.95c0.244-0.001,0.489,0,0.733,0C253.243-241.979,253.243-241.973,253.243-241.965z"/>
      <path fill="#FFFFFF" d="M246.364-348.585c-0.35,0.389-0.638,1.006-1.061,1.117c-0.825,0.218-1.079-0.485-1.173-1.175&#10;&#9;&#9;&#9;c-0.038-0.277-0.121-0.617-0.005-0.832c0.263-0.486,0.636-0.912,0.965-1.363c0.315,0.438,0.659,0.859,0.933,1.321&#10;&#9;&#9;&#9;c0.112,0.191,0.074,0.472,0.104,0.713C246.206-348.73,246.285-348.658,246.364-348.585z"/>
      <path fill="#FFFFFF" d="M49.401-431.242c0.036,0.713-2.193,2.207-2.75,1.919c-0.201-0.104-0.511-0.432-0.486-0.469&#10;&#9;&#9;&#9;c0.475-0.718,0.903-1.513,1.544-2.05c0.26-0.217,1.009,0.127,1.523,0.262C49.331-431.555,49.371-431.309,49.401-431.242z"/>
      <path fill="#FFFFFF" d="M49.857-426.449c-0.144,1.076-0.214,1.818-0.365,2.546c-0.031,0.148-0.381,0.346-0.551,0.317&#10;&#9;&#9;&#9;c-0.162-0.026-0.32-0.299-0.411-0.496c-0.212-0.463-0.423-0.933-0.56-1.42c-0.134-0.477-0.314-1.017-0.198-1.455&#10;&#9;&#9;&#9;c0.058-0.218,0.816-0.471,1.115-0.352C49.338-427.128,49.663-426.635,49.857-426.449z"/>
      <path fill="#FFFFFF" d="M164.088-260.299c-0.166,0.142-0.744,0.74-0.824,0.68c-0.667-0.505-1.242-1.131-1.846-1.72&#10;&#9;&#9;&#9;c0.405-0.291,0.791-0.79,1.219-0.829C163.625-262.259,164.117-261.652,164.088-260.299z"/>
      <path fill="#FFFFFF" d="M136.045-395.851c-1.228-0.041-1.991-0.792-1.88-1.681c0.042-0.336,0.457-0.625,0.702-0.936&#10;&#9;&#9;&#9;c0.643,0.585,1.303,1.154,1.886,1.793C136.788-396.635,136.202-396.029,136.045-395.851z"/>
      <path fill="#FFFFFF" d="M285.331-195.644c0.747,0.662,1.444,1.218,2.041,1.865c0.107,0.117-0.114,0.795-0.327,0.889&#10;&#9;&#9;&#9;c-0.292,0.129-0.766,0.035-1.08-0.124c-0.401-0.204-0.746-0.544-1.068-0.872c-0.23-0.235-0.585-0.609-0.523-0.81&#10;&#9;&#9;&#9;C284.469-195.005,284.873-195.218,285.331-195.644z"/>
      <path fill="#FFFFFF" d="M18.756-483.176c-0.089,2.184-0.916,2.897-2.259,2.279c-0.645-0.297-0.947-0.881-0.313-1.297&#10;&#9;&#9;&#9;C16.9-482.664,17.814-482.834,18.756-483.176z"/>
      <path fill="#FFFFFF" d="M408.542-14.519c-1.066-0.226-1.646-0.606-1.508-1.46c0.071-0.438,0.563-0.808,0.865-1.209&#10;&#9;&#9;&#9;c0.576,0.508,1.152,1.015,1.729,1.522C409.266-15.283,408.903-14.901,408.542-14.519z"/>
      <path fill="#FFFFFF" d="M397.072-210.63c0.172,0.177,0.645,0.459,0.787,0.859c0.192,0.538-1.045,1.581-1.887,1.565&#10;&#9;&#9;&#9;c-0.271-0.006-0.722-0.385-0.768-0.649C395.081-209.564,396.052-210.589,397.072-210.63z"/>
      <path fill="#FFFFFF" d="M115.831-226.777c0.473,0.56,1.009,1.079,1.389,1.695c0.176,0.285,0.144,0.799,0.009,1.129&#10;&#9;&#9;&#9;c-0.057,0.142-0.757,0.231-0.919,0.08c-0.459-0.425-0.899-0.942-1.132-1.512c-0.146-0.356,0.093-0.871,0.159-1.315&#10;&#9;&#9;&#9;C115.5-226.726,115.666-226.752,115.831-226.777z"/>
      <path fill="#FFFFFF" d="M459.269-133.65c-0.728-0.6-1.238-1.021-1.749-1.442c0.36-0.315,0.722-0.891,1.082-0.891&#10;&#9;&#9;&#9;c0.654,0.001,1.62-0.018,1.622,1.009C460.224-134.614,459.724-134.254,459.269-133.65z"/>
      <path fill="#FFFFFF" d="M117.318-285.939c0.567,0.629,1.166,0.988,1.207,1.403c0.089,0.881-0.683,0.93-1.358,0.928&#10;&#9;&#9;&#9;c-0.676-0.002-1.333-0.213-1.167-0.988C116.092-285.021,116.698-285.336,117.318-285.939z"/>
      <path fill="#FFFFFF" d="M203.846-377.535c0.709,0.83,1.205,1.35,1.582,1.945c0.039,0.063-0.863,0.88-0.934,0.826&#10;&#9;&#9;&#9;c-0.526-0.398-1.018-0.888-1.369-1.445C203.029-376.361,203.453-376.84,203.846-377.535z"/>
      <path fill="#FFFFFF" d="M385.129-331.648c-0.707,0.618-1.104,0.965-1.501,1.312c-0.313-0.435-0.845-0.857-0.871-1.31&#10;&#9;&#9;&#9;c-0.023-0.381,0.542-0.797,0.847-1.197C384.009-332.525,384.414-332.208,385.129-331.648z"/>
      <path fill="#FFFFFF" d="M383.805-301.449c-0.46-0.57-0.746-0.926-1.032-1.281c0.385-0.309,0.782-0.875,1.152-0.857&#10;&#9;&#9;&#9;c0.408,0.019,0.792,0.573,1.186,0.895C384.743-302.342,384.375-301.992,383.805-301.449z"/>
      <path fill="#FFFFFF" d="M381.859-151.628c-0.579,0.538-0.938,0.871-1.298,1.205c-0.287-0.411-0.8-0.822-0.799-1.232&#10;&#9;&#9;&#9;c0.001-0.4,0.526-0.801,0.821-1.2C380.938-152.516,381.29-152.176,381.859-151.628z"/>
      <path fill="#FFFFFF" d="M287.8-309.379c-0.549,0.543-0.878,0.868-1.207,1.193c-0.289-0.406-0.778-0.799-0.807-1.224&#10;&#9;&#9;&#9;c-0.024-0.354,0.489-0.745,0.765-1.12C286.906-310.202,287.262-309.875,287.8-309.379z"/>
      <path fill="#FFFFFF" d="M362.642-352.016c-0.573,0.494-0.929,0.801-1.285,1.108c-0.289-0.46-0.697-0.895-0.809-1.396&#10;&#9;&#9;&#9;c-0.045-0.198,0.621-0.811,0.869-0.761C361.803-352.986,362.107-352.504,362.642-352.016z"/>
      <path fill="#FFFFFF" d="M73.533-99.747c-0.55,0.45-0.946,1.006-1.239,0.955c-0.355-0.062-0.901-0.669-0.861-0.974&#10;&#9;&#9;&#9;c0.056-0.431,0.574-0.801,0.895-1.196C72.661-100.627,72.994-100.291,73.533-99.747z"/>
      <path fill="#FFFFFF" d="M361.338-469.228c-0.579-0.58-0.933-0.935-1.286-1.289c0.36-0.304,0.747-0.872,1.076-0.841&#10;&#9;&#9;&#9;c0.398,0.038,0.848,0.531,1.067,0.939C362.276-470.268,361.765-469.799,361.338-469.228z"/>
      <path fill="#FFFFFF" d="M123.262-190.374c-0.48-0.516-0.794-0.853-1.108-1.188c0.383-0.273,0.769-0.764,1.147-0.759&#10;&#9;&#9;&#9;c0.383,0.005,0.759,0.502,1.138,0.783C124.108-191.211,123.777-190.883,123.262-190.374z"/>
      <path fill="#FFFFFF" d="M222.621-414.696c-0.482-0.564-0.785-0.92-1.088-1.275c0.413-0.288,0.813-0.768,1.244-0.799&#10;&#9;&#9;&#9;c0.3-0.021,0.9,0.577,0.897,0.895C223.672-415.541,223.112-415.211,222.621-414.696z"/>
      <path fill="#FFFFFF" d="M177.556-392.487c-0.41-0.565-0.661-0.911-0.911-1.257c0.418-0.277,0.836-0.766,1.256-0.769&#10;&#9;&#9;&#9;c0.348-0.002,0.699,0.567,1.049,0.884C178.555-393.306,178.159-392.982,177.556-392.487z"/>
      <path fill="#FFFFFF" d="M111.823-124.538c-0.458-0.624-0.928-0.988-0.924-1.348c0.003-0.287,0.611-0.82,0.902-0.789&#10;&#9;&#9;&#9;c0.401,0.043,0.756,0.515,1.13,0.803C112.636-125.517,112.34-125.16,111.823-124.538z"/>
      <path fill="#FFFFFF" d="M226.35-323.859c-0.482,0.58-0.965,1.161-1.447,1.741c-0.274-0.235-0.775-0.46-0.787-0.708&#10;&#9;&#9;&#9;c-0.063-1.346,1.213-0.925,1.836-1.391C226.084-324.098,226.217-323.979,226.35-323.859z"/>
      <path fill="#FFFFFF" d="M337.273-482.493c-0.403-0.546-0.908-0.95-0.842-1.208c0.086-0.331,0.654-0.783,0.968-0.75&#10;&#9;&#9;&#9;c0.401,0.043,0.757,0.52,1.132,0.809C338.182-483.324,337.833-483.005,337.273-482.493z"/>
      <path fill="#FFFFFF" d="M368.735-240.026c-0.605,0.514-0.938,1.008-1.31,1.04c-0.267,0.023-0.843-0.594-0.817-0.887&#10;&#9;&#9;&#9;c0.031-0.374,0.472-0.871,0.846-1C367.688-240.953,368.121-240.454,368.735-240.026z"/>
      <path fill="#FFFFFF" d="M224.033-473.25c-0.508,0.512-0.832,0.839-1.157,1.166c-0.262-0.348-0.744-0.706-0.728-1.04&#10;&#9;&#9;&#9;c0.02-0.386,0.479-0.75,0.746-1.124C223.211-473.97,223.528-473.691,224.033-473.25z"/>
      <path fill="#FFFFFF" d="M230.19-35.191c0.225,0.407,0.634,0.822,0.617,1.219c-0.015,0.33-0.53,0.638-0.825,0.956&#10;&#9;&#9;&#9;c-0.297-0.308-0.813-0.599-0.837-0.927c-0.03-0.397,0.354-0.825,0.56-1.24C229.867-35.187,230.028-35.188,230.19-35.191z"/>
      <path fill="#FFFFFF" d="M481.976-294.908c-0.596,0.513-0.916,0.992-1.297,1.047c-0.262,0.037-0.607-0.518-0.915-0.808&#10;&#9;&#9;&#9;c0.354-0.304,0.671-0.697,1.08-0.87C481.025-295.616,481.396-295.248,481.976-294.908z"/>
      <path fill="#FFFFFF" d="M210.063-109.647c-0.672,0.4-1.082,0.837-1.376,0.769c-0.33-0.075-0.783-0.626-0.76-0.937&#10;&#9;&#9;&#9;c0.025-0.321,0.547-0.819,0.875-0.838C209.111-110.672,209.449-110.166,210.063-109.647z"/>
      <path fill="#FFFFFF" d="M255.035-405.848c-0.222-0.352-0.646-0.726-0.611-1.049c0.039-0.348,0.51-0.648,0.791-0.971&#10;&#9;&#9;&#9;c0.301,0.308,0.792,0.585,0.847,0.932c0.051,0.32-0.364,0.716-0.573,1.078C255.337-405.854,255.187-405.851,255.035-405.848z"/>
      <path fill="#FFFFFF" d="M225.824-245.811c-0.447-0.666-0.908-1.057-0.854-1.352c0.062-0.336,0.584-0.811,0.906-0.811&#10;&#9;&#9;&#9;c0.301-0.002,0.802,0.518,0.843,0.854C226.758-246.817,226.291-246.453,225.824-245.811z"/>
      <path fill="#FFFFFF" d="M239.98-436.855c-0.378-0.691-0.758-1.076-0.721-1.415c0.031-0.291,0.539-0.53,0.836-0.792&#10;&#9;&#9;&#9;c0.281,0.318,0.729,0.611,0.789,0.967C240.928-437.832,240.464-437.484,239.98-436.855z"/>
      <path fill="#FFFFFF" d="M468.53-226.237c0.421,0.663,0.828,1.023,0.811,1.363c-0.014,0.291-0.583,0.829-0.781,0.777&#10;&#9;&#9;&#9;c-0.354-0.094-0.776-0.51-0.858-0.863C467.642-225.216,468.086-225.589,468.53-226.237z"/>
      <path fill="#FFFFFF" d="M193.822-249.078c-0.634,0.368-1.001,0.755-1.295,0.706c-0.316-0.053-0.564-0.515-0.843-0.798&#10;&#9;&#9;&#9;c0.318-0.281,0.608-0.726,0.965-0.788C192.904-250.003,193.248-249.533,193.822-249.078z"/>
      <path fill="#FFFFFF" d="M422.334-224.769c-0.702,0.351-1.099,0.715-1.438,0.667c-0.286-0.04-0.768-0.655-0.697-0.844&#10;&#9;&#9;&#9;c0.127-0.343,0.578-0.726,0.934-0.77C421.398-225.747,421.727-225.272,422.334-224.769z"/>
      <path fill="#FFFFFF" d="M197.625-361.176c-0.351,0.223-0.707,0.623-1.049,0.611c-0.285-0.009-0.77-0.498-0.773-0.78&#10;&#9;&#9;&#9;c-0.004-0.3,0.434-0.821,0.718-0.851c0.341-0.034,0.726,0.35,1.091,0.553C197.615-361.486,197.62-361.332,197.625-361.176z"/>
      <path fill="#FFFFFF" d="M146.33-155.113c-0.604,0.397-0.982,0.833-1.238,0.77c-0.355-0.087-0.618-0.549-0.92-0.85&#10;&#9;&#9;&#9;c0.325-0.276,0.623-0.715,0.983-0.774C145.416-156.011,145.759-155.551,146.33-155.113z"/>
      <path fill="#FFFFFF" d="M109.698-187.323c-0.35,0.23-0.703,0.643-1.047,0.635c-0.29-0.006-0.774-0.487-0.793-0.781&#10;&#9;&#9;&#9;c-0.018-0.283,0.427-0.807,0.715-0.843c0.341-0.042,0.733,0.326,1.102,0.517C109.683-187.639,109.69-187.48,109.698-187.323z"/>
      <path fill="#FFFFFF" d="M201.967-116.637c-0.682,0.375-1.092,0.778-1.344,0.696c-0.342-0.112-0.719-0.569-0.775-0.927&#10;&#9;&#9;&#9;c-0.032-0.204,0.554-0.719,0.843-0.704C201.03-117.556,201.35-117.117,201.967-116.637z"/>
      <path fill="#FFFFFF" d="M247.479-113.649c-0.692,0.394-1.072,0.78-1.416,0.751c-0.285-0.024-0.789-0.615-0.73-0.82&#10;&#9;&#9;&#9;c0.1-0.343,0.543-0.746,0.895-0.805C246.493-114.568,246.843-114.117,247.479-113.649z"/>
      <path fill="#FFFFFF" d="M372.832-110.747c-0.693,0.453-1.046,0.857-1.392,0.853c-0.275-0.004-0.542-0.512-0.813-0.796&#10;&#9;&#9;&#9;c0.313-0.287,0.59-0.712,0.955-0.813C371.817-111.569,372.185-111.16,372.832-110.747z"/>
      <path fill="#FFFFFF" d="M36.125-104.607c-0.596,0.405-0.961,0.843-1.23,0.79c-0.357-0.069-0.638-0.523-0.952-0.812&#10;&#9;&#9;&#9;c0.32-0.279,0.613-0.722,0.971-0.783C35.186-105.458,35.54-105.019,36.125-104.607z"/>
      <path fill="#FFFFFF" d="M289.611-33.606c-0.42-0.578-0.87-0.935-0.82-1.195c0.068-0.356,0.517-0.642,0.802-0.957&#10;&#9;&#9;&#9;c0.292,0.311,0.745,0.587,0.82,0.944C290.468-34.556,290.021-34.191,289.611-33.606z"/>
      <path fill="#FFFFFF" d="M318.214-345.087c-0.683,0.38-1.092,0.786-1.344,0.704c-0.345-0.111-0.571-0.592-0.849-0.914&#10;&#9;&#9;&#9;c0.303-0.26,0.613-0.733,0.906-0.723C317.268-346.006,317.591-345.566,318.214-345.087z"/>
      <path fill="#FFFFFF" d="M154.151-343.428c0.409,0.578,0.853,0.938,0.799,1.195c-0.075,0.355-0.521,0.634-0.81,0.945&#10;&#9;&#9;&#9;c-0.289-0.313-0.741-0.592-0.814-0.949C153.273-342.49,153.729-342.85,154.151-343.428z"/>
      <path fill="#FFFFFF" d="M47.958-319.599c-0.4-0.691-0.791-1.067-0.759-1.404c0.028-0.294,0.531-0.544,0.824-0.813&#10;&#9;&#9;&#9;c0.284,0.315,0.729,0.6,0.797,0.958C48.87-320.599,48.423-320.243,47.958-319.599z"/>
      <path fill="#FFFFFF" d="M114.643-222.146c0.434,0.603,0.856,0.938,0.868,1.286c0.009,0.265-0.505,0.547-0.787,0.821&#10;&#9;&#9;&#9;c-0.285-0.321-0.681-0.604-0.811-0.979C113.847-221.213,114.252-221.569,114.643-222.146z"/>
      <path fill="#FFFFFF" d="M412.847-353.043c-0.376-0.615-0.801-1.017-0.725-1.258c0.109-0.342,0.588-0.567,0.908-0.843&#10;&#9;&#9;&#9;c0.244,0.308,0.672,0.61,0.682,0.926C413.722-353.922,413.291-353.611,412.847-353.043z"/>
      <path fill="#FFFFFF" d="M423.049-147.77c-0.438-0.658-0.854-1.011-0.842-1.349c0.01-0.295,0.503-0.573,0.782-0.858&#10;&#9;&#9;&#9;c0.301,0.3,0.76,0.562,0.849,0.914C423.901-148.807,423.474-148.428,423.049-147.77z"/>
      <path fill="#FFFFFF" d="M140.004-86.165c-0.364,0.203-0.745,0.587-1.087,0.555c-0.289-0.027-0.743-0.538-0.738-0.83&#10;&#9;&#9;&#9;c0.004-0.287,0.481-0.78,0.771-0.796c0.343-0.018,0.707,0.38,1.063,0.597C140.009-86.481,140.007-86.323,140.004-86.165z"/>
      <path fill="#FFFFFF" d="M363.406-38.745c-0.344,0.238-0.688,0.657-1.032,0.656c-0.286,0-0.779-0.477-0.8-0.771&#10;&#9;&#9;&#9;c-0.021-0.286,0.411-0.819,0.697-0.858c0.34-0.047,0.735,0.318,1.107,0.505C363.388-39.057,363.397-38.9,363.406-38.745z"/>
      <path fill="#FFFFFF" d="M481.961-304.648c-0.686,0.377-1.099,0.782-1.347,0.699c-0.345-0.117-0.567-0.6-0.842-0.926&#10;&#9;&#9;&#9;c0.306-0.256,0.62-0.727,0.913-0.713C481.024-305.572,481.344-305.131,481.961-304.648z"/>
      <path fill="#FFFFFF" d="M484.62-208.487c-0.37-0.608-0.76-0.965-0.719-1.26c0.045-0.312,0.501-0.563,0.777-0.842&#10;&#9;&#9;&#9;c0.288,0.307,0.743,0.583,0.808,0.932C485.534-209.404,485.064-209.056,484.62-208.487z"/>
      <path fill="#FFFFFF" d="M284.544-183.224c-0.411-0.589-0.86-0.964-0.798-1.208c0.088-0.345,0.555-0.594,0.859-0.884&#10;&#9;&#9;&#9;c0.261,0.291,0.704,0.566,0.731,0.879C285.363-184.143,284.951-183.81,284.544-183.224z"/>
      <path fill="#FFFFFF" d="M246.137-432.895c0.588,0.692,1.058,1.247,1.528,1.801c-0.173,0.127-0.46,0.395-0.503,0.359&#10;&#9;&#9;&#9;c-0.541-0.436-1.058-0.904-1.539-1.405C245.59-432.176,245.881-432.524,246.137-432.895z"/>
      <path fill="#FFFFFF" d="M73.499-440.874c-0.313,0.138-0.67,0.438-0.931,0.371c-0.349-0.09-0.624-0.466-0.931-0.72&#10;&#9;&#9;&#9;c0.268-0.235,0.556-0.682,0.8-0.66c0.385,0.035,0.74,0.387,1.108,0.604C73.531-441.145,73.515-441.009,73.499-440.874z"/>
      <path fill="#FFFFFF" d="M345.292-253.451c0.366,0.642,0.755,1.018,0.697,1.305c-0.063,0.305-0.56,0.742-0.841,0.723&#10;&#9;&#9;&#9;c-0.278-0.019-0.712-0.522-0.729-0.833C344.403-252.549,344.84-252.867,345.292-253.451z"/>
      <path fill="#FFFFFF" d="M83.476-417.195c0.375,0.611,0.801,1.016,0.722,1.25c-0.114,0.34-0.592,0.558-0.915,0.828&#10;&#9;&#9;&#9;c-0.243-0.307-0.667-0.608-0.676-0.922C82.598-416.332,83.031-416.637,83.476-417.195z"/>
      <path fill="#FFFFFF" d="M476.855-279.386c-0.67,0.374-1.061,0.768-1.329,0.697c-0.303-0.079-0.642-0.562-0.68-0.899&#10;&#9;&#9;&#9;c-0.023-0.205,0.503-0.67,0.768-0.658C475.934-280.233,476.237-279.84,476.855-279.386z"/>
      <path fill="#FFFFFF" d="M214.052-387.592c-0.642,0.383-1.008,0.777-1.295,0.727c-0.309-0.057-0.763-0.542-0.747-0.818&#10;&#9;&#9;&#9;c0.016-0.284,0.502-0.729,0.815-0.757C213.115-388.467,213.445-388.036,214.052-387.592z"/>
      <path fill="#FFFFFF" d="M53.062-14.393c-0.406-0.654-0.81-1.019-0.759-1.3c0.055-0.303,0.511-0.675,0.842-0.733&#10;&#9;&#9;&#9;c0.199-0.035,0.689,0.468,0.695,0.735C53.847-15.369,53.476-15.041,53.062-14.393z"/>
      <path fill="#FFFFFF" d="M293.905-164.266c-0.65,0.411-1.012,0.817-1.292,0.768c-0.304-0.054-0.676-0.506-0.738-0.837&#10;&#9;&#9;&#9;c-0.036-0.196,0.462-0.688,0.73-0.695C292.925-165.04,293.255-164.673,293.905-164.266z"/>
      <path fill="#FFFFFF" d="M41.653-455.156c-0.128-0.375-0.409-0.782-0.342-1.119c0.063-0.322,0.486-0.789,0.758-0.794&#10;&#9;&#9;&#9;c0.297-0.005,0.602,0.448,0.904,0.7c-0.23,0.275-0.461,0.551-0.692,0.825C42.072-455.414,41.862-455.285,41.653-455.156z"/>
      <path fill="#FFFFFF" d="M412.003-370.411c-0.512,0.339-0.832,0.716-1.103,0.683c-0.286-0.033-0.524-0.459-0.783-0.715&#10;&#9;&#9;&#9;c0.284-0.269,0.537-0.687,0.863-0.754C411.201-371.244,411.525-370.799,412.003-370.411z"/>
      <path fill="#FFFFFF" d="M438.341-4.482c-0.572,0.337-0.91,0.692-1.223,0.671c-0.259-0.018-0.487-0.479-0.729-0.743&#10;&#9;&#9;&#9;c0.285-0.261,0.544-0.671,0.867-0.731C437.486-5.329,437.805-4.901,438.341-4.482z"/>
      <path fill="#FFFFFF" d="M365.484-261.327c-0.477,0.366-0.805,0.794-1.023,0.745c-0.319-0.072-0.56-0.488-0.834-0.759&#10;&#9;&#9;&#9;c0.262-0.244,0.508-0.657,0.789-0.683C364.685-262.049,364.991-261.67,365.484-261.327z"/>
      <path fill="#FFFFFF" d="M243.049-467.686c-0.235-0.488-0.483-0.854-0.427-0.909c0.475-0.466,1.003-0.878,1.532-1.282&#10;&#9;&#9;&#9;c0.017-0.013,0.362,0.336,0.344,0.361C244.086-468.958,243.645-468.422,243.049-467.686z"/>
      <path fill="#FFFFFF" d="M239.13-397.704c-0.5,0.329-0.857,0.729-1.07,0.663c-0.312-0.096-0.52-0.527-0.771-0.814&#10;&#9;&#9;&#9;c0.276-0.225,0.55-0.617,0.831-0.622C238.388-398.481,238.663-398.083,239.13-397.704z"/>
      <path fill="#FFFFFF" d="M43.038-423.131c0.32,0.549,0.68,0.891,0.631,1.157c-0.05,0.278-0.497,0.483-0.77,0.721&#10;&#9;&#9;&#9;c-0.235-0.275-0.644-0.544-0.654-0.827C42.236-422.352,42.642-422.637,43.038-423.131z"/>
      <path fill="#FFFFFF" d="M127.791-355.936c-0.41,0.35-0.684,0.582-0.957,0.814c-0.218-0.336-0.58-0.662-0.604-1.011&#10;&#9;&#9;&#9;c-0.016-0.226,0.462-0.486,0.718-0.731C127.19-356.597,127.432-356.33,127.791-355.936z"/>
      <path fill="#FFFFFF" d="M51.005-88.38c-0.335-0.52-0.705-0.84-0.667-1.1c0.041-0.274,0.47-0.491,0.73-0.732&#10;&#9;&#9;&#9;c0.241,0.26,0.652,0.507,0.674,0.785C51.764-89.166,51.374-88.872,51.005-88.38z"/>
      <path fill="#FFFFFF" d="M322.919-466.225c0.338,0.605,0.645,0.904,0.613,1.162c-0.04,0.326-0.357,0.617-0.555,0.924&#10;&#9;&#9;&#9;c-0.209-0.252-0.569-0.493-0.588-0.76C322.366-465.217,322.634-465.557,322.919-466.225z"/>
      <path fill="#FFFFFF" d="M409.947-276.387c-0.379-0.512-0.733-0.783-0.751-1.076c-0.015-0.235,0.414-0.721,0.583-0.695&#10;&#9;&#9;&#9;c0.307,0.049,0.736,0.357,0.796,0.628C410.63-277.279,410.27-276.936,409.947-276.387z"/>
      <path fill="#FFFFFF" d="M78.396-218.671c-0.371-0.541-0.749-0.85-0.721-1.116c0.028-0.276,0.449-0.513,0.699-0.767&#10;&#9;&#9;&#9;c0.231,0.231,0.638,0.455,0.648,0.695C79.033-219.558,78.718-219.244,78.396-218.671z"/>
      <path fill="#FFFFFF" d="M80.338-204.679c0.339,0.442,0.732,0.749,0.683,0.941c-0.076,0.297-0.456,0.516-0.707,0.767&#10;&#9;&#9;&#9;c-0.219-0.241-0.59-0.47-0.614-0.729C79.679-203.945,80.022-204.223,80.338-204.679z"/>
      <path fill="#FFFFFF" d="M238.084-442.253c0.316,0.501,0.648,0.8,0.641,1.09c-0.006,0.226-0.512,0.66-0.664,0.609&#10;&#9;&#9;&#9;c-0.293-0.099-0.627-0.446-0.688-0.743C237.331-441.501,237.723-441.793,238.084-442.253z"/>
      <path fill="#FFFFFF" d="M370.484-327.032c-0.465,0.362-0.761,0.756-0.965,0.713c-0.299-0.063-0.642-0.401-0.744-0.698&#10;&#9;&#9;&#9;c-0.05-0.147,0.392-0.654,0.617-0.658C369.685-327.682,369.984-327.349,370.484-327.032z"/>
      <path fill="#FFFFFF" d="M90.469-236.551c0.365-0.371,0.73-0.741,1.096-1.112c0.178,0.187,0.524,0.521,0.51,0.539&#10;&#9;&#9;&#9;c-0.341,0.387-0.722,0.74-1.095,1.099C90.809-236.2,90.639-236.376,90.469-236.551z"/>
      <path fill="#FFFFFF" d="M221.221-486.795c-0.341-0.314-0.682-0.63-1.023-0.945c0.233-0.217,0.466-0.433,0.699-0.649&#10;&#9;&#9;&#9;c0.291,0.371,0.582,0.741,0.873,1.112C221.586-487.116,221.404-486.955,221.221-486.795z"/>
      <path fill="#FFFFFF" d="M436.136-154.184c-0.404,0.341-0.684,0.745-0.887,0.709c-0.299-0.052-0.543-0.418-0.811-0.65&#10;&#9;&#9;&#9;c0.252-0.25,0.471-0.631,0.766-0.703C435.404-154.878,435.711-154.495,436.136-154.184z"/>
      <path fill="#FFFFFF" d="M235.1-215.726c-0.584,0.311-0.908,0.622-1.197,0.593c-0.227-0.022-0.582-0.478-0.566-0.72&#10;&#9;&#9;&#9;c0.014-0.236,0.436-0.635,0.662-0.624C234.29-216.464,234.566-216.113,235.1-215.726z"/>
      <path fill="#FFFFFF" d="M325.541-183.378c-0.61,0.241-0.938,0.493-1.211,0.443c-0.257-0.047-0.456-0.411-0.682-0.635&#10;&#9;&#9;&#9;c0.295-0.152,0.585-0.408,0.887-0.424C324.769-184.005,325.018-183.715,325.541-183.378z"/>
      <path fill="#FFFFFF" d="M160.244-305.761c0.315,0.459,0.659,0.739,0.636,0.983c-0.024,0.26-0.397,0.485-0.618,0.727&#10;&#9;&#9;&#9;c-0.25-0.253-0.629-0.474-0.703-0.77C159.511-305.015,159.904-305.318,160.244-305.761z"/>
      <path fill="#FFFFFF" d="M244.109-475.578c-0.457,0.322-0.775,0.703-0.969,0.646c-0.293-0.084-0.499-0.473-0.742-0.732&#10;&#9;&#9;&#9;c0.251-0.211,0.493-0.573,0.755-0.588C243.398-476.268,243.664-475.912,244.109-475.578z"/>
      <path fill="#FFFFFF" d="M61.142-19.691c0.333,0.437,0.691,0.702,0.679,0.949c-0.012,0.26-0.379,0.503-0.592,0.753&#10;&#9;&#9;&#9;c-0.261-0.243-0.651-0.448-0.736-0.741C60.438-18.924,60.823-19.244,61.142-19.691z"/>
      <path fill="#FFFFFF" d="M231.904-481.65c0.365,0.43,0.775,0.715,0.736,0.91c-0.059,0.299-0.43,0.537-0.668,0.801&#10;&#9;&#9;&#9;c-0.232-0.229-0.617-0.438-0.654-0.693C231.283-480.879,231.611-481.176,231.904-481.65z"/>
      <path fill="#FFFFFF" d="M37.885-26.853c-0.42,0.358-0.709,0.772-0.905,0.732c-0.299-0.062-0.534-0.437-0.795-0.679&#10;&#9;&#9;&#9;c0.231-0.233,0.441-0.623,0.699-0.657C37.129-27.487,37.423-27.149,37.885-26.853z"/>
      <path fill="#FFFFFF" d="M444.33-189.509c0.287,0.466,0.648,0.807,0.581,0.998c-0.101,0.286-0.501,0.467-0.774,0.692&#10;&#9;&#9;&#9;c-0.196-0.262-0.549-0.525-0.546-0.785C443.595-188.85,443.969-189.091,444.33-189.509z"/>
      <path fill="#FFFFFF" d="M256.17-283.552c-0.291-0.495-0.614-0.801-0.57-1.038c0.048-0.251,0.443-0.438,0.688-0.652&#10;&#9;&#9;&#9;c0.214,0.246,0.584,0.484,0.596,0.739C256.895-284.262,256.529-284.004,256.17-283.552z"/>
      <path fill="#FFFFFF" d="M219.848-75.366c-0.293-0.436-0.631-0.72-0.6-0.954c0.033-0.248,0.488-0.67,0.637-0.623&#10;&#9;&#9;&#9;c0.294,0.091,0.629,0.422,0.701,0.714C220.629-76.055,220.205-75.765,219.848-75.366z"/>
      <path fill="#FFFFFF" d="M474.503-55.907c-0.365,0.234-0.656,0.523-0.758,0.467c-0.306-0.167-0.537-0.47-0.798-0.72&#10;&#9;&#9;&#9;c0.227-0.186,0.503-0.558,0.67-0.514C473.901-56.6,474.117-56.264,474.503-55.907z"/>
      <path fill="#FFFFFF" d="M47.287-50.263c-0.365,0.678-0.521,1.146-0.83,1.466c-0.159,0.165-0.592,0.066-0.9,0.087&#10;&#9;&#9;&#9;c0.062-0.277,0.032-0.673,0.205-0.808C46.118-49.796,46.582-49.935,47.287-50.263z"/>
      <path fill="#FFFFFF" d="M24.705-46.036c-0.286-0.452-0.614-0.74-0.581-0.979c0.035-0.253,0.413-0.458,0.641-0.684&#10;&#9;&#9;&#9;c0.24,0.256,0.609,0.484,0.674,0.778C25.48-46.734,25.066-46.449,24.705-46.036z"/>
      <path fill="#FFFFFF" d="M158.174-194.658c-0.449,0.359-0.709,0.728-0.949,0.716c-0.254-0.014-0.666-0.378-0.682-0.61&#10;&#9;&#9;&#9;c-0.015-0.228,0.355-0.635,0.608-0.681C157.388-195.275,157.691-194.948,158.174-194.658z"/>
      <path fill="#FFFFFF" d="M398.748-1.479c-0.498,0.308-0.769,0.603-1.036,0.599c-0.207-0.003-0.604-0.425-0.568-0.579&#10;&#9;&#9;&#9;c0.063-0.273,0.369-0.641,0.617-0.678C397.986-2.17,398.27-1.817,398.748-1.479z"/>
      <path fill="#FFFFFF" d="M176.607-486.566c0.309,0.422,0.492,0.674,0.678,0.926c-0.268,0.18-0.527,0.479-0.806,0.498&#10;&#9;&#9;&#9;c-0.193,0.014-0.604-0.392-0.577-0.551C175.947-485.958,176.268-486.175,176.607-486.566z"/>
      <path fill="#FFFFFF" d="M56.085-287.559c-0.5,0.313-0.802,0.648-1.028,0.604c-0.248-0.05-0.532-0.428-0.59-0.707&#10;&#9;&#9;&#9;c-0.03-0.145,0.396-0.547,0.609-0.541C55.342-288.195,55.599-287.889,56.085-287.559z"/>
      <path fill="#FFFFFF" d="M25.755-336.053c-0.508,0.297-0.821,0.625-1.048,0.574c-0.245-0.056-0.518-0.447-0.566-0.729&#10;&#9;&#9;&#9;c-0.025-0.147,0.414-0.537,0.624-0.523C25.032-336.713,25.28-336.398,25.755-336.053z"/>
      <path fill="#FFFFFF" d="M2.454-212.764c0.355,0.47,0.674,0.712,0.696,0.979c0.018,0.211-0.364,0.658-0.51,0.635&#10;&#9;&#9;&#9;c-0.284-0.046-0.681-0.308-0.743-0.554C1.841-211.929,2.165-212.249,2.454-212.764z"/>
      <path fill="#FFFFFF" d="M484.653-212.861c-0.453,0.359-0.716,0.726-0.946,0.706c-0.247-0.021-0.574-0.373-0.65-0.642&#10;&#9;&#9;&#9;c-0.043-0.153,0.334-0.594,0.542-0.607C483.864-213.423,484.149-213.14,484.653-212.861z"/>
      <path fill="#FFFFFF" d="M394.665-452.385c-0.295-0.473-0.627-0.771-0.585-1.002c0.046-0.248,0.448-0.607,0.681-0.597&#10;&#9;&#9;&#9;c0.226,0.011,0.589,0.421,0.602,0.671C395.374-453.076,395.011-452.819,394.665-452.385z"/>
      <path fill="#FFFFFF" d="M294.643-75.328c-0.489,0.335-0.776,0.683-1.005,0.647c-0.249-0.04-0.549-0.407-0.616-0.684&#10;&#9;&#9;&#9;c-0.035-0.146,0.373-0.564,0.583-0.566C293.872-75.934,294.143-75.639,294.643-75.328z"/>
      <path fill="#FFFFFF" d="M52.005-475.432c-0.286-0.535-0.584-0.84-0.543-1.089c0.041-0.256,0.414-0.458,0.641-0.683&#10;&#9;&#9;&#9;c0.199,0.248,0.543,0.492,0.554,0.748C52.667-476.199,52.342-475.93,52.005-475.432z"/>
      <path fill="#FFFFFF" d="M456.295-342.1c0.356,0.404,0.723,0.646,0.696,0.829c-0.041,0.274-0.315,0.601-0.575,0.72&#10;&#9;&#9;&#9;c-0.122,0.057-0.612-0.304-0.63-0.503C455.763-341.317,456.038-341.608,456.295-342.1z"/>
      <path fill="#FFFFFF" d="M436.101-308.757c-0.477,0.277-0.753,0.563-1.016,0.552c-0.2-0.01-0.582-0.478-0.532-0.6&#10;&#9;&#9;&#9;c0.107-0.265,0.415-0.556,0.687-0.609C435.42-309.449,435.679-309.096,436.101-308.757z"/>
      <path fill="#FFFFFF" d="M214.73-397.716c-0.451,0.29-0.737,0.608-0.916,0.558c-0.262-0.077-0.446-0.418-0.664-0.646&#10;&#9;&#9;&#9;c0.207-0.195,0.424-0.556,0.621-0.546C214.033-398.336,214.281-398.033,214.73-397.716z"/>
      <path fill="#FFFFFF" d="M388.675-282.559c-0.32-0.477-0.66-0.762-0.627-0.992c0.035-0.242,0.402-0.538,0.673-0.602&#10;&#9;&#9;&#9;c0.146-0.034,0.557,0.371,0.556,0.576C389.274-283.31,388.981-283.045,388.675-282.559z"/>
      <path fill="#FFFFFF" d="M381.474-217.894c-0.286-0.492-0.613-0.809-0.556-1.022c0.063-0.24,0.463-0.497,0.742-0.53&#10;&#9;&#9;&#9;c0.156-0.019,0.532,0.416,0.511,0.615C382.143-218.567,381.823-218.335,381.474-217.894z"/>
    </g>
  </pattern>
  <pattern x="379.055" y="846.958" width="490.25" height="490.25" patternUnits="userSpaceOnUse" id="Motivo_nuevo_2" viewBox="0 -490.25 490.25 490.25" overflow="visible">
    <g>
      <polygon fill="none" points="0,-490.25 490.25,-490.25 490.25,0 0,0 &#9;&#9;"/>
      <path d="M180.657-490.25c0.304,0.519,0.681,1.01,0.886,1.564c0.152,0.41,0.223,1.246,0.085,1.303&#10;&#9;&#9;&#9;c-0.673,0.279-1.429,0.475-2.151,0.46c-0.311-0.007-0.827-0.566-0.871-0.922c-0.098-0.786,0.046-1.602,0.091-2.405&#10;&#9;&#9;&#9;C179.35-490.25,180.004-490.25,180.657-490.25z"/>
      <path d="M490.25-102.707c-0.335-0.131-0.813-0.167-0.974-0.412c-0.318-0.485-0.461-1.085-0.677-1.638&#10;&#9;&#9;&#9;c0.55-0.134,1.101-0.268,1.65-0.401C490.25-104.342,490.25-103.524,490.25-102.707z"/>
      <path d="M0-105.403c0.848-0.12,1.334,0.227,1.283,1.103c-0.043,0.766-0.346,1.33-1.283,1.104C0-103.933,0-104.668,0-105.403z"/>
      <path d="M122.806-163.377c0.86,0.5,1.727,0.993,2.577,1.511c0.117,0.072,0.214,0.268,0.225,0.413&#10;&#9;&#9;&#9;c0.067,0.964,0.178,1.932,0.141,2.894c-0.038,0.976-1.816,2.096-2.861,1.89c-1.742-0.342-2.334-1.189-2.083-2.917&#10;&#9;&#9;&#9;c0.036-0.25-0.088-0.527-0.154-0.788c-0.144-0.568-0.597-1.338-0.381-1.655c0.347-0.51,1.126-0.736,1.741-1.042&#10;&#9;&#9;&#9;c0.164-0.081,0.4-0.013,0.604-0.013C122.678-163.183,122.742-163.279,122.806-163.377z"/>
      <path d="M167.349-262.934c-0.956-0.623-1.721-1.074-2.429-1.602c-0.348-0.258-0.54-0.73-0.893-0.979&#10;&#9;&#9;&#9;c-0.873-0.615-0.873-1.548-0.346-2.115c0.387-0.416,1.371-0.461,2.048-0.367c0.626,0.088,1.36,0.443,1.754,0.922&#10;&#9;&#9;&#9;c0.669,0.811,1.22,1.773,1.553,2.764C169.109-264.094,168.063-263.5,167.349-262.934z"/>
      <path d="M410.513-22.612c1.121-0.018,2.188,0.021,2.251,1.564c0.007,0.172,0.281,0.372,0.474,0.492&#10;&#9;&#9;&#9;c0.997,0.623,1.104,1.115,0.436,2.148c-0.414,0.639-1.569,0.878-2.161,0.328c-0.915-0.851-1.772-1.773-2.577-2.729&#10;&#9;&#9;&#9;c-0.271-0.323-0.544-0.974-0.396-1.239c0.179-0.319,0.797-0.416,1.242-0.553C410.006-22.669,410.268-22.612,410.513-22.612z"/>
      <path d="M27.67-87.161c0.293-0.686,0.409-1.738,0.914-1.979c1.074-0.514,1.621,0.482,2.099,1.323&#10;&#9;&#9;&#9;c0.136,0.239,0.392,0.407,0.583,0.616c0.494,0.542,0.549,1.065-0.07,1.563c-0.186,0.148-0.414,0.284-0.52,0.481&#10;&#9;&#9;&#9;c-0.264,0.488-0.197,1.402-1.123,1.037c-0.848-0.334-1.797-0.705-1.631-1.955c0.042-0.319,0.006-0.649,0.006-0.976&#10;&#9;&#9;&#9;C27.842-87.088,27.756-87.125,27.67-87.161z"/>
      <path d="M104.574-192.588c1.413-0.172,2.057,0.931,2.736,1.685c0.734,0.816,0.029,2.153-1.076,2.211&#10;&#9;&#9;&#9;c-1.15,0.06-2.502,0.36-2.563-1.495c-0.003-0.075-0.043-0.171-0.099-0.219c-0.495-0.437-1.15-0.938-0.599-1.599&#10;&#9;&#9;&#9;C103.29-192.382,104.027-192.405,104.574-192.588z"/>
      <path d="M423.967-244.215c1.028-0.854,2.244-0.602,2.81,0.684c0.504,1.146-0.786,1.342-1.208,1.991&#10;&#9;&#9;&#9;c-0.112,0.174-0.918,0.158-1.143-0.052c-0.697-0.651-1.293-1.421-1.867-2.189c-0.113-0.15,0.042-0.501,0.074-0.76&#10;&#9;&#9;&#9;C423.03-244.443,423.428-244.347,423.967-244.215z"/>
      <path d="M276.11-331.125c-0.345,0.37-0.82,1.166-1.521,1.549c-0.677,0.369-0.959-0.373-0.998-0.968&#10;&#9;&#9;&#9;c-0.051-0.759,0.079-1.534-0.807-1.979c-0.155-0.078-0.224-0.662-0.099-0.875c0.15-0.259,0.535-0.486,0.845-0.525&#10;&#9;&#9;&#9;C274.495-334.043,276.075-332.563,276.11-331.125z"/>
      <path d="M40.781-440.727c1.05,0.757,1.999,1.38,2.854,2.112c0.152,0.13-0.024,1.015-0.158,1.043&#10;&#9;&#9;&#9;c-0.596,0.128-1.258,0.185-1.848,0.052c-0.623-0.141-1.241-0.456-1.766-0.831c-0.329-0.235-0.759-0.923-0.661-1.057&#10;&#9;&#9;&#9;C39.54-439.871,40.088-440.181,40.781-440.727z"/>
      <path d="M80.258-430.222c0.479,0.422,1.311,0.804,1.363,1.273c0.111,0.993-0.942,1.761-1.912,1.732&#10;&#9;&#9;&#9;c-1.049-0.03-1.298-0.671-1.266-1.55C78.482-429.811,79.163-430.023,80.258-430.222z"/>
      <path d="M211.65-380.598c0.994-0.689,2.104-1.123,3.329-0.756c0.306,0.092,0.573,0.813,0.57,1.244&#10;&#9;&#9;&#9;c-0.001,0.254-0.613,0.76-0.871,0.713c-1.019-0.184-2.007-0.542-3.006-0.836C211.665-380.354,211.658-380.476,211.65-380.598z"/>
      <path d="M262.654-238.313c0.579,0.546,1.329,1.16,1.284,1.224c-0.456,0.658-1.041,1.227-1.59,1.819&#10;&#9;&#9;&#9;c-0.485-0.58-0.971-1.16-1.456-1.74C261.409-237.393,261.927-237.775,262.654-238.313z"/>
      <path d="M115.78-108.964c0.603,0.625,1.187,0.958,1.296,1.406c0.178,0.731-0.751,1.758-1.382,1.722&#10;&#9;&#9;&#9;c-1.03-0.06-1.316-0.895-1.239-1.642C114.502-107.929,115.172-108.314,115.78-108.964z"/>
      <path d="M6.304-485.897c0.179-0.39,0.313-1.103,0.743-1.464c0.248-0.209,1.07,0.015,1.461,0.289&#10;&#9;&#9;&#9;c0.569,0.396,1.307,0.941,0.809,1.789c-0.145,0.245-0.84,0.326-1.223,0.234C7.529-485.185,7.02-485.543,6.304-485.897z"/>
      <path d="M253.243-241.965c0.325,0,0.713-0.111,0.962,0.027c0.335,0.187,0.778,0.567,0.775,0.862&#10;&#9;&#9;&#9;c-0.002,0.296-0.448,0.752-0.781,0.844c-0.531,0.146-1.159,0.16-1.691,0.022c-0.417-0.109-0.994-0.477-1.076-0.827&#10;&#9;&#9;&#9;c-0.169-0.727,0.434-0.945,1.078-0.95c0.244-0.001,0.489,0,0.733,0C253.243-241.979,253.243-241.973,253.243-241.965z"/>
      <path d="M246.364-348.585c-0.35,0.389-0.638,1.006-1.061,1.117c-0.825,0.218-1.079-0.485-1.173-1.175&#10;&#9;&#9;&#9;c-0.038-0.277-0.121-0.617-0.005-0.832c0.263-0.486,0.636-0.912,0.965-1.363c0.315,0.438,0.659,0.859,0.933,1.321&#10;&#9;&#9;&#9;c0.112,0.191,0.074,0.472,0.104,0.713C246.206-348.73,246.285-348.658,246.364-348.585z"/>
      <path d="M49.4-431.242c0.036,0.713-2.192,2.207-2.75,1.919c-0.2-0.104-0.51-0.432-0.485-0.469c0.475-0.718,0.903-1.513,1.544-2.05&#10;&#9;&#9;&#9;c0.26-0.217,1.01,0.127,1.523,0.262C49.33-431.555,49.371-431.309,49.4-431.242z"/>
      <path d="M49.857-426.449c-0.145,1.076-0.215,1.818-0.365,2.546c-0.031,0.148-0.381,0.346-0.551,0.317&#10;&#9;&#9;&#9;c-0.162-0.026-0.32-0.299-0.411-0.496c-0.212-0.463-0.423-0.933-0.56-1.42c-0.135-0.477-0.314-1.017-0.198-1.455&#10;&#9;&#9;&#9;c0.058-0.218,0.816-0.471,1.114-0.352C49.338-427.128,49.662-426.635,49.857-426.449z"/>
      <path d="M164.088-260.299c-0.166,0.142-0.744,0.74-0.824,0.68c-0.667-0.505-1.242-1.131-1.846-1.72&#10;&#9;&#9;&#9;c0.405-0.291,0.791-0.79,1.219-0.829C163.625-262.259,164.117-261.652,164.088-260.299z"/>
      <path d="M136.045-395.851c-1.228-0.041-1.99-0.792-1.88-1.681c0.042-0.336,0.457-0.625,0.702-0.936&#10;&#9;&#9;&#9;c0.643,0.585,1.303,1.154,1.886,1.793C136.788-396.635,136.201-396.029,136.045-395.851z"/>
      <path d="M285.331-195.644c0.747,0.662,1.444,1.218,2.041,1.865c0.107,0.117-0.114,0.795-0.327,0.889&#10;&#9;&#9;&#9;c-0.292,0.129-0.766,0.035-1.08-0.124c-0.401-0.204-0.746-0.544-1.068-0.872c-0.23-0.235-0.585-0.609-0.523-0.81&#10;&#9;&#9;&#9;C284.469-195.005,284.873-195.218,285.331-195.644z"/>
      <path d="M18.756-483.176c-0.089,2.184-0.915,2.897-2.259,2.279c-0.645-0.297-0.946-0.881-0.313-1.297&#10;&#9;&#9;&#9;C16.9-482.664,17.814-482.834,18.756-483.176z"/>
      <path d="M408.542-14.519c-1.066-0.226-1.646-0.606-1.508-1.46c0.071-0.438,0.563-0.808,0.865-1.209&#10;&#9;&#9;&#9;c0.576,0.508,1.152,1.015,1.729,1.522C409.266-15.283,408.903-14.901,408.542-14.519z"/>
      <path d="M397.072-210.63c0.172,0.177,0.645,0.459,0.787,0.859c0.192,0.538-1.045,1.581-1.887,1.565&#10;&#9;&#9;&#9;c-0.271-0.006-0.722-0.385-0.768-0.649C395.081-209.564,396.052-210.589,397.072-210.63z"/>
      <path d="M115.83-226.777c0.473,0.56,1.01,1.079,1.389,1.695c0.176,0.285,0.145,0.799,0.01,1.129&#10;&#9;&#9;&#9;c-0.057,0.142-0.757,0.231-0.92,0.08c-0.459-0.425-0.898-0.942-1.132-1.512c-0.146-0.356,0.093-0.871,0.159-1.315&#10;&#9;&#9;&#9;C115.5-226.726,115.666-226.752,115.83-226.777z"/>
      <path d="M459.269-133.65c-0.728-0.6-1.238-1.021-1.749-1.442c0.36-0.315,0.722-0.891,1.082-0.891&#10;&#9;&#9;&#9;c0.654,0.001,1.62-0.018,1.622,1.009C460.224-134.614,459.724-134.254,459.269-133.65z"/>
      <path d="M117.318-285.939c0.566,0.629,1.166,0.988,1.207,1.403c0.089,0.881-0.683,0.93-1.358,0.928&#10;&#9;&#9;&#9;c-0.677-0.002-1.333-0.213-1.167-0.988C116.092-285.021,116.698-285.336,117.318-285.939z"/>
      <path d="M203.846-377.535c0.709,0.83,1.205,1.35,1.582,1.945c0.039,0.063-0.863,0.88-0.934,0.826&#10;&#9;&#9;&#9;c-0.526-0.398-1.018-0.888-1.369-1.445C203.029-376.361,203.453-376.84,203.846-377.535z"/>
      <path d="M385.129-331.648c-0.707,0.618-1.104,0.965-1.501,1.312c-0.313-0.435-0.845-0.857-0.871-1.31&#10;&#9;&#9;&#9;c-0.023-0.381,0.542-0.797,0.847-1.197C384.009-332.525,384.414-332.208,385.129-331.648z"/>
      <path d="M383.805-301.449c-0.46-0.57-0.746-0.926-1.032-1.281c0.385-0.309,0.782-0.875,1.152-0.857&#10;&#9;&#9;&#9;c0.408,0.019,0.792,0.573,1.186,0.895C384.743-302.342,384.375-301.992,383.805-301.449z"/>
      <path d="M381.859-151.628c-0.579,0.538-0.938,0.871-1.298,1.205c-0.287-0.411-0.8-0.822-0.799-1.232&#10;&#9;&#9;&#9;c0.001-0.4,0.526-0.801,0.821-1.2C380.938-152.516,381.29-152.176,381.859-151.628z"/>
      <path d="M287.8-309.379c-0.549,0.543-0.878,0.868-1.207,1.193c-0.289-0.406-0.778-0.799-0.807-1.224&#10;&#9;&#9;&#9;c-0.024-0.354,0.489-0.745,0.765-1.12C286.906-310.202,287.262-309.875,287.8-309.379z"/>
      <path d="M362.642-352.016c-0.573,0.494-0.929,0.801-1.285,1.108c-0.289-0.46-0.697-0.895-0.809-1.396&#10;&#9;&#9;&#9;c-0.045-0.198,0.621-0.811,0.869-0.761C361.803-352.986,362.107-352.504,362.642-352.016z"/>
      <path d="M73.533-99.747c-0.551,0.45-0.947,1.006-1.239,0.955c-0.354-0.062-0.901-0.669-0.86-0.974&#10;&#9;&#9;&#9;c0.056-0.431,0.574-0.801,0.895-1.196C72.661-100.627,72.994-100.291,73.533-99.747z"/>
      <path d="M361.338-469.228c-0.579-0.58-0.933-0.935-1.286-1.289c0.36-0.304,0.747-0.872,1.076-0.841&#10;&#9;&#9;&#9;c0.398,0.038,0.848,0.531,1.067,0.939C362.276-470.268,361.765-469.799,361.338-469.228z"/>
      <path d="M123.262-190.374c-0.48-0.516-0.794-0.853-1.107-1.188c0.383-0.273,0.769-0.764,1.147-0.759&#10;&#9;&#9;&#9;c0.383,0.005,0.759,0.502,1.138,0.783C124.108-191.211,123.777-190.883,123.262-190.374z"/>
      <path d="M222.621-414.696c-0.482-0.564-0.785-0.92-1.088-1.275c0.413-0.288,0.813-0.768,1.244-0.799&#10;&#9;&#9;&#9;c0.3-0.021,0.9,0.577,0.897,0.895C223.672-415.541,223.112-415.211,222.621-414.696z"/>
      <path d="M177.556-392.487c-0.41-0.565-0.661-0.911-0.911-1.257c0.418-0.277,0.836-0.766,1.256-0.769&#10;&#9;&#9;&#9;c0.348-0.002,0.699,0.567,1.049,0.884C178.555-393.306,178.159-392.982,177.556-392.487z"/>
      <path d="M111.823-124.538c-0.458-0.624-0.928-0.988-0.924-1.348c0.003-0.287,0.611-0.82,0.902-0.789&#10;&#9;&#9;&#9;c0.401,0.043,0.756,0.515,1.13,0.803C112.637-125.517,112.34-125.16,111.823-124.538z"/>
      <path d="M226.35-323.859c-0.482,0.58-0.965,1.161-1.447,1.741c-0.274-0.235-0.775-0.46-0.787-0.708&#10;&#9;&#9;&#9;c-0.063-1.346,1.213-0.925,1.836-1.391C226.084-324.098,226.217-323.979,226.35-323.859z"/>
      <path d="M337.273-482.493c-0.403-0.546-0.908-0.95-0.842-1.208c0.086-0.331,0.654-0.783,0.968-0.75&#10;&#9;&#9;&#9;c0.401,0.043,0.757,0.52,1.132,0.809C338.182-483.324,337.833-483.005,337.273-482.493z"/>
      <path d="M368.735-240.026c-0.605,0.514-0.938,1.008-1.31,1.04c-0.267,0.023-0.843-0.594-0.817-0.887&#10;&#9;&#9;&#9;c0.031-0.374,0.472-0.871,0.846-1C367.688-240.953,368.121-240.454,368.735-240.026z"/>
      <path d="M224.033-473.25c-0.508,0.512-0.832,0.839-1.157,1.166c-0.262-0.348-0.744-0.706-0.728-1.04&#10;&#9;&#9;&#9;c0.02-0.386,0.479-0.75,0.746-1.124C223.211-473.97,223.528-473.691,224.033-473.25z"/>
      <path d="M230.19-35.191c0.225,0.407,0.634,0.822,0.617,1.219c-0.015,0.33-0.53,0.638-0.825,0.956&#10;&#9;&#9;&#9;c-0.297-0.308-0.813-0.599-0.837-0.927c-0.03-0.397,0.354-0.825,0.56-1.24C229.867-35.187,230.028-35.188,230.19-35.191z"/>
      <path d="M481.976-294.908c-0.596,0.513-0.916,0.992-1.297,1.047c-0.262,0.037-0.607-0.518-0.915-0.808&#10;&#9;&#9;&#9;c0.354-0.304,0.671-0.697,1.08-0.87C481.025-295.616,481.396-295.248,481.976-294.908z"/>
      <path d="M210.063-109.647c-0.672,0.4-1.082,0.837-1.376,0.769c-0.33-0.075-0.783-0.626-0.76-0.937&#10;&#9;&#9;&#9;c0.025-0.321,0.547-0.819,0.875-0.838C209.111-110.672,209.449-110.166,210.063-109.647z"/>
      <path d="M255.035-405.848c-0.222-0.352-0.646-0.726-0.611-1.049c0.039-0.348,0.51-0.648,0.791-0.971&#10;&#9;&#9;&#9;c0.301,0.308,0.792,0.585,0.847,0.932c0.051,0.32-0.364,0.716-0.573,1.078C255.337-405.854,255.187-405.851,255.035-405.848z"/>
      <path d="M225.824-245.811c-0.447-0.666-0.908-1.057-0.854-1.352c0.062-0.336,0.584-0.811,0.906-0.811&#10;&#9;&#9;&#9;c0.301-0.002,0.802,0.518,0.843,0.854C226.758-246.817,226.291-246.453,225.824-245.811z"/>
      <path d="M239.98-436.855c-0.378-0.691-0.758-1.076-0.721-1.415c0.031-0.291,0.539-0.53,0.836-0.792&#10;&#9;&#9;&#9;c0.281,0.318,0.729,0.611,0.789,0.967C240.928-437.832,240.464-437.484,239.98-436.855z"/>
      <path d="M468.53-226.237c0.421,0.663,0.828,1.023,0.811,1.363c-0.014,0.291-0.583,0.829-0.781,0.777&#10;&#9;&#9;&#9;c-0.354-0.094-0.776-0.51-0.858-0.863C467.642-225.216,468.086-225.589,468.53-226.237z"/>
      <path d="M193.822-249.078c-0.634,0.368-1.001,0.755-1.295,0.706c-0.316-0.053-0.564-0.515-0.843-0.798&#10;&#9;&#9;&#9;c0.318-0.281,0.608-0.726,0.965-0.788C192.904-250.003,193.248-249.533,193.822-249.078z"/>
      <path d="M422.334-224.769c-0.702,0.351-1.099,0.715-1.438,0.667c-0.286-0.04-0.768-0.655-0.697-0.844&#10;&#9;&#9;&#9;c0.127-0.343,0.578-0.726,0.934-0.77C421.398-225.747,421.727-225.272,422.334-224.769z"/>
      <path d="M197.625-361.176c-0.351,0.223-0.707,0.623-1.049,0.611c-0.285-0.009-0.77-0.498-0.773-0.78&#10;&#9;&#9;&#9;c-0.004-0.3,0.434-0.821,0.718-0.851c0.341-0.034,0.726,0.35,1.091,0.553C197.615-361.486,197.62-361.332,197.625-361.176z"/>
      <path d="M146.33-155.113c-0.604,0.397-0.982,0.833-1.238,0.77c-0.355-0.087-0.618-0.549-0.92-0.85&#10;&#9;&#9;&#9;c0.324-0.276,0.622-0.715,0.982-0.774C145.416-156.011,145.76-155.551,146.33-155.113z"/>
      <path d="M109.698-187.323c-0.35,0.23-0.703,0.643-1.048,0.635c-0.289-0.006-0.773-0.487-0.793-0.781&#10;&#9;&#9;&#9;c-0.018-0.283,0.428-0.807,0.716-0.843c0.341-0.042,0.733,0.326,1.103,0.517C109.684-187.639,109.69-187.48,109.698-187.323z"/>
      <path d="M201.967-116.637c-0.682,0.375-1.092,0.778-1.344,0.696c-0.342-0.112-0.719-0.569-0.775-0.927&#10;&#9;&#9;&#9;c-0.032-0.204,0.554-0.719,0.843-0.704C201.03-117.556,201.35-117.117,201.967-116.637z"/>
      <path d="M247.479-113.649c-0.692,0.394-1.072,0.78-1.416,0.751c-0.285-0.024-0.789-0.615-0.73-0.82&#10;&#9;&#9;&#9;c0.1-0.343,0.543-0.746,0.895-0.805C246.493-114.568,246.843-114.117,247.479-113.649z"/>
      <path d="M372.832-110.747c-0.693,0.453-1.046,0.857-1.392,0.853c-0.275-0.004-0.542-0.512-0.813-0.796&#10;&#9;&#9;&#9;c0.313-0.287,0.59-0.712,0.955-0.813C371.817-111.569,372.185-111.16,372.832-110.747z"/>
      <path d="M36.125-104.607c-0.596,0.405-0.961,0.843-1.23,0.79c-0.356-0.069-0.638-0.523-0.951-0.812&#10;&#9;&#9;&#9;c0.32-0.279,0.613-0.722,0.971-0.783C35.186-105.458,35.54-105.019,36.125-104.607z"/>
      <path d="M289.611-33.606c-0.42-0.578-0.87-0.935-0.82-1.195c0.068-0.356,0.517-0.642,0.802-0.957&#10;&#9;&#9;&#9;c0.292,0.311,0.745,0.587,0.82,0.944C290.468-34.556,290.021-34.191,289.611-33.606z"/>
      <path d="M318.214-345.087c-0.683,0.38-1.092,0.786-1.344,0.704c-0.345-0.111-0.571-0.592-0.849-0.914&#10;&#9;&#9;&#9;c0.303-0.26,0.613-0.733,0.906-0.723C317.268-346.006,317.591-345.566,318.214-345.087z"/>
      <path d="M154.151-343.428c0.409,0.578,0.853,0.938,0.799,1.195c-0.075,0.355-0.521,0.634-0.81,0.945&#10;&#9;&#9;&#9;c-0.289-0.313-0.741-0.592-0.814-0.949C153.273-342.49,153.729-342.85,154.151-343.428z"/>
      <path d="M47.958-319.599c-0.399-0.691-0.791-1.067-0.759-1.404c0.027-0.294,0.53-0.544,0.823-0.813&#10;&#9;&#9;&#9;c0.284,0.315,0.729,0.6,0.798,0.958C48.869-320.599,48.423-320.243,47.958-319.599z"/>
      <path d="M114.643-222.146c0.434,0.603,0.856,0.938,0.868,1.286c0.009,0.265-0.505,0.547-0.787,0.821&#10;&#9;&#9;&#9;c-0.285-0.321-0.681-0.604-0.811-0.979C113.847-221.213,114.252-221.569,114.643-222.146z"/>
      <path d="M412.847-353.043c-0.376-0.615-0.801-1.017-0.725-1.258c0.109-0.342,0.588-0.567,0.908-0.843&#10;&#9;&#9;&#9;c0.244,0.308,0.672,0.61,0.682,0.926C413.722-353.922,413.291-353.611,412.847-353.043z"/>
      <path d="M423.049-147.77c-0.438-0.658-0.854-1.011-0.842-1.349c0.01-0.295,0.503-0.573,0.782-0.858&#10;&#9;&#9;&#9;c0.301,0.3,0.76,0.562,0.849,0.914C423.901-148.807,423.474-148.428,423.049-147.77z"/>
      <path d="M140.004-86.165c-0.363,0.203-0.744,0.587-1.087,0.555c-0.289-0.027-0.743-0.538-0.738-0.83&#10;&#9;&#9;&#9;c0.005-0.287,0.481-0.78,0.771-0.796c0.344-0.018,0.707,0.38,1.063,0.597C140.01-86.481,140.007-86.323,140.004-86.165z"/>
      <path d="M363.406-38.745c-0.344,0.238-0.688,0.657-1.032,0.656c-0.286,0-0.779-0.477-0.8-0.771&#10;&#9;&#9;&#9;c-0.021-0.286,0.411-0.819,0.697-0.858c0.34-0.047,0.735,0.318,1.107,0.505C363.388-39.057,363.397-38.9,363.406-38.745z"/>
      <path d="M481.961-304.648c-0.686,0.377-1.099,0.782-1.347,0.699c-0.345-0.117-0.567-0.6-0.842-0.926&#10;&#9;&#9;&#9;c0.306-0.256,0.62-0.727,0.913-0.713C481.024-305.572,481.344-305.131,481.961-304.648z"/>
      <path d="M484.62-208.487c-0.37-0.608-0.76-0.965-0.719-1.26c0.045-0.312,0.501-0.563,0.777-0.842&#10;&#9;&#9;&#9;c0.288,0.307,0.743,0.583,0.808,0.932C485.534-209.404,485.064-209.056,484.62-208.487z"/>
      <path d="M284.544-183.224c-0.411-0.589-0.86-0.964-0.798-1.208c0.088-0.345,0.555-0.594,0.859-0.884&#10;&#9;&#9;&#9;c0.261,0.291,0.704,0.566,0.731,0.879C285.363-184.143,284.951-183.81,284.544-183.224z"/>
      <path d="M246.137-432.895c0.588,0.692,1.058,1.247,1.528,1.801c-0.173,0.127-0.46,0.395-0.503,0.359&#10;&#9;&#9;&#9;c-0.541-0.436-1.058-0.904-1.539-1.405C245.59-432.176,245.881-432.524,246.137-432.895z"/>
      <path d="M73.499-440.874c-0.313,0.138-0.67,0.438-0.931,0.371c-0.349-0.09-0.624-0.466-0.931-0.72&#10;&#9;&#9;&#9;c0.269-0.235,0.556-0.682,0.8-0.66c0.385,0.035,0.74,0.387,1.109,0.604C73.531-441.145,73.515-441.009,73.499-440.874z"/>
      <path d="M345.292-253.451c0.366,0.642,0.755,1.018,0.697,1.305c-0.063,0.305-0.56,0.742-0.841,0.723&#10;&#9;&#9;&#9;c-0.278-0.019-0.712-0.522-0.729-0.833C344.403-252.549,344.84-252.867,345.292-253.451z"/>
      <path d="M83.476-417.195c0.374,0.611,0.801,1.016,0.722,1.25c-0.113,0.34-0.592,0.558-0.914,0.828&#10;&#9;&#9;&#9;c-0.244-0.307-0.668-0.608-0.677-0.922C82.598-416.332,83.031-416.637,83.476-417.195z"/>
      <path d="M476.855-279.386c-0.67,0.374-1.061,0.768-1.329,0.697c-0.303-0.079-0.642-0.562-0.68-0.899&#10;&#9;&#9;&#9;c-0.023-0.205,0.503-0.67,0.768-0.658C475.934-280.233,476.237-279.84,476.855-279.386z"/>
      <path d="M214.052-387.592c-0.642,0.383-1.008,0.777-1.295,0.727c-0.309-0.057-0.763-0.542-0.747-0.818&#10;&#9;&#9;&#9;c0.016-0.284,0.502-0.729,0.815-0.757C213.115-388.467,213.445-388.036,214.052-387.592z"/>
      <path d="M53.063-14.393c-0.406-0.654-0.811-1.019-0.76-1.3c0.056-0.303,0.512-0.675,0.843-0.733&#10;&#9;&#9;&#9;c0.199-0.035,0.689,0.468,0.694,0.735C53.848-15.369,53.477-15.041,53.063-14.393z"/>
      <path d="M293.905-164.266c-0.65,0.411-1.012,0.817-1.292,0.768c-0.304-0.054-0.676-0.506-0.738-0.837&#10;&#9;&#9;&#9;c-0.036-0.196,0.462-0.688,0.73-0.695C292.925-165.04,293.255-164.673,293.905-164.266z"/>
      <path d="M41.653-455.156c-0.128-0.375-0.409-0.782-0.342-1.119c0.063-0.322,0.486-0.789,0.758-0.794&#10;&#9;&#9;&#9;c0.298-0.005,0.603,0.448,0.903,0.7c-0.23,0.275-0.461,0.551-0.691,0.825C42.072-455.414,41.862-455.285,41.653-455.156z"/>
      <path d="M412.003-370.411c-0.512,0.339-0.832,0.716-1.103,0.683c-0.286-0.033-0.524-0.459-0.783-0.715&#10;&#9;&#9;&#9;c0.284-0.269,0.537-0.687,0.863-0.754C411.201-371.244,411.525-370.799,412.003-370.411z"/>
      <path d="M438.341-4.482c-0.572,0.337-0.91,0.692-1.223,0.671c-0.259-0.018-0.487-0.479-0.729-0.743&#10;&#9;&#9;&#9;c0.285-0.261,0.544-0.671,0.867-0.731C437.486-5.329,437.805-4.901,438.341-4.482z"/>
      <path d="M365.484-261.327c-0.477,0.366-0.805,0.794-1.023,0.745c-0.319-0.072-0.56-0.488-0.834-0.759&#10;&#9;&#9;&#9;c0.262-0.244,0.508-0.657,0.789-0.683C364.685-262.049,364.991-261.67,365.484-261.327z"/>
      <path d="M243.049-467.686c-0.235-0.488-0.483-0.854-0.427-0.909c0.475-0.466,1.003-0.878,1.532-1.282&#10;&#9;&#9;&#9;c0.017-0.013,0.362,0.336,0.344,0.361C244.086-468.958,243.645-468.422,243.049-467.686z"/>
      <path d="M239.13-397.704c-0.5,0.329-0.857,0.729-1.07,0.663c-0.312-0.096-0.52-0.527-0.771-0.814&#10;&#9;&#9;&#9;c0.276-0.225,0.55-0.617,0.831-0.622C238.388-398.481,238.663-398.083,239.13-397.704z"/>
      <path d="M43.037-423.131c0.32,0.549,0.681,0.891,0.632,1.157c-0.05,0.278-0.497,0.483-0.77,0.721&#10;&#9;&#9;&#9;c-0.235-0.275-0.644-0.544-0.654-0.827C42.236-422.352,42.642-422.637,43.037-423.131z"/>
      <path d="M127.791-355.936c-0.41,0.35-0.684,0.582-0.957,0.814c-0.218-0.336-0.579-0.662-0.604-1.011&#10;&#9;&#9;&#9;c-0.016-0.226,0.463-0.486,0.719-0.731C127.19-356.597,127.432-356.33,127.791-355.936z"/>
      <path d="M51.006-88.38c-0.336-0.52-0.705-0.84-0.667-1.1c0.04-0.274,0.47-0.491,0.729-0.732c0.242,0.26,0.652,0.507,0.674,0.785&#10;&#9;&#9;&#9;C51.764-89.166,51.374-88.872,51.006-88.38z"/>
      <path d="M322.919-466.225c0.338,0.605,0.645,0.904,0.613,1.162c-0.04,0.326-0.357,0.617-0.555,0.924&#10;&#9;&#9;&#9;c-0.209-0.252-0.569-0.493-0.588-0.76C322.366-465.217,322.634-465.557,322.919-466.225z"/>
      <path d="M409.947-276.387c-0.379-0.512-0.733-0.783-0.751-1.076c-0.015-0.235,0.414-0.721,0.583-0.695&#10;&#9;&#9;&#9;c0.307,0.049,0.736,0.357,0.796,0.628C410.63-277.279,410.27-276.936,409.947-276.387z"/>
      <path d="M78.396-218.671c-0.371-0.541-0.749-0.85-0.722-1.116c0.029-0.276,0.449-0.513,0.699-0.767&#10;&#9;&#9;&#9;c0.23,0.231,0.639,0.455,0.648,0.695C79.033-219.558,78.719-219.244,78.396-218.671z"/>
      <path d="M80.338-204.679c0.34,0.442,0.732,0.749,0.684,0.941c-0.076,0.297-0.455,0.516-0.707,0.767&#10;&#9;&#9;&#9;c-0.219-0.241-0.59-0.47-0.613-0.729C79.68-203.945,80.022-204.223,80.338-204.679z"/>
      <path d="M238.084-442.253c0.316,0.501,0.648,0.8,0.641,1.09c-0.006,0.226-0.512,0.66-0.664,0.609&#10;&#9;&#9;&#9;c-0.293-0.099-0.627-0.446-0.688-0.743C237.331-441.501,237.723-441.793,238.084-442.253z"/>
      <path d="M370.484-327.032c-0.465,0.362-0.761,0.756-0.965,0.713c-0.299-0.063-0.642-0.401-0.744-0.698&#10;&#9;&#9;&#9;c-0.05-0.147,0.392-0.654,0.617-0.658C369.685-327.682,369.984-327.349,370.484-327.032z"/>
      <path d="M90.469-236.551c0.365-0.371,0.73-0.741,1.096-1.112c0.178,0.187,0.524,0.521,0.51,0.539&#10;&#9;&#9;&#9;c-0.342,0.387-0.722,0.74-1.096,1.099C90.809-236.2,90.639-236.376,90.469-236.551z"/>
      <path d="M221.221-486.795c-0.341-0.314-0.682-0.63-1.023-0.945c0.233-0.217,0.466-0.433,0.699-0.649&#10;&#9;&#9;&#9;c0.291,0.371,0.582,0.741,0.873,1.112C221.586-487.116,221.404-486.955,221.221-486.795z"/>
      <path d="M436.136-154.184c-0.404,0.341-0.684,0.745-0.887,0.709c-0.299-0.052-0.543-0.418-0.811-0.65&#10;&#9;&#9;&#9;c0.252-0.25,0.471-0.631,0.766-0.703C435.404-154.878,435.711-154.495,436.136-154.184z"/>
      <path d="M235.1-215.726c-0.584,0.311-0.908,0.622-1.197,0.593c-0.227-0.022-0.582-0.478-0.566-0.72&#10;&#9;&#9;&#9;c0.014-0.236,0.436-0.635,0.662-0.624C234.29-216.464,234.566-216.113,235.1-215.726z"/>
      <path d="M325.541-183.378c-0.61,0.241-0.938,0.493-1.211,0.443c-0.257-0.047-0.456-0.411-0.682-0.635&#10;&#9;&#9;&#9;c0.295-0.152,0.585-0.408,0.887-0.424C324.769-184.005,325.018-183.715,325.541-183.378z"/>
      <path d="M160.244-305.761c0.315,0.459,0.659,0.739,0.636,0.983c-0.024,0.26-0.397,0.485-0.618,0.727&#10;&#9;&#9;&#9;c-0.25-0.253-0.629-0.474-0.703-0.77C159.511-305.015,159.904-305.318,160.244-305.761z"/>
      <path d="M244.109-475.578c-0.457,0.322-0.775,0.703-0.969,0.646c-0.293-0.084-0.499-0.473-0.742-0.732&#10;&#9;&#9;&#9;c0.251-0.211,0.493-0.573,0.755-0.588C243.398-476.268,243.664-475.912,244.109-475.578z"/>
      <path d="M61.142-19.691c0.333,0.437,0.69,0.702,0.679,0.949c-0.012,0.26-0.379,0.503-0.592,0.753&#10;&#9;&#9;&#9;c-0.26-0.243-0.65-0.448-0.735-0.741C60.438-18.924,60.822-19.244,61.142-19.691z"/>
      <path d="M231.904-481.65c0.365,0.43,0.775,0.715,0.736,0.91c-0.059,0.299-0.43,0.537-0.668,0.801&#10;&#9;&#9;&#9;c-0.232-0.229-0.617-0.438-0.654-0.693C231.283-480.879,231.611-481.176,231.904-481.65z"/>
      <path d="M37.885-26.853c-0.42,0.358-0.709,0.772-0.904,0.732c-0.3-0.062-0.534-0.437-0.796-0.679&#10;&#9;&#9;&#9;c0.231-0.233,0.441-0.623,0.698-0.657C37.129-27.487,37.423-27.149,37.885-26.853z"/>
      <path d="M444.33-189.509c0.287,0.466,0.648,0.807,0.581,0.998c-0.101,0.286-0.501,0.467-0.774,0.692&#10;&#9;&#9;&#9;c-0.196-0.262-0.549-0.525-0.546-0.785C443.595-188.85,443.969-189.091,444.33-189.509z"/>
      <path d="M256.17-283.552c-0.291-0.495-0.614-0.801-0.57-1.038c0.048-0.251,0.443-0.438,0.688-0.652&#10;&#9;&#9;&#9;c0.214,0.246,0.584,0.484,0.596,0.739C256.895-284.262,256.529-284.004,256.17-283.552z"/>
      <path d="M219.848-75.366c-0.293-0.436-0.631-0.72-0.6-0.954c0.033-0.248,0.488-0.67,0.637-0.623&#10;&#9;&#9;&#9;c0.294,0.091,0.629,0.422,0.701,0.714C220.629-76.055,220.205-75.765,219.848-75.366z"/>
      <path d="M474.503-55.907c-0.365,0.234-0.656,0.523-0.758,0.467c-0.306-0.167-0.537-0.47-0.798-0.72&#10;&#9;&#9;&#9;c0.227-0.186,0.503-0.558,0.67-0.514C473.901-56.6,474.117-56.264,474.503-55.907z"/>
      <path d="M47.287-50.263c-0.365,0.678-0.521,1.146-0.83,1.466c-0.158,0.165-0.592,0.066-0.9,0.087&#10;&#9;&#9;&#9;c0.063-0.277,0.032-0.673,0.205-0.808C46.117-49.796,46.582-49.935,47.287-50.263z"/>
      <path d="M24.705-46.036c-0.286-0.452-0.613-0.74-0.58-0.979c0.035-0.253,0.412-0.458,0.641-0.684&#10;&#9;&#9;&#9;c0.24,0.256,0.609,0.484,0.674,0.778C25.48-46.734,25.066-46.449,24.705-46.036z"/>
      <path d="M158.174-194.658c-0.449,0.359-0.709,0.728-0.949,0.716c-0.254-0.014-0.666-0.378-0.682-0.61&#10;&#9;&#9;&#9;c-0.015-0.228,0.355-0.635,0.608-0.681C157.388-195.275,157.691-194.948,158.174-194.658z"/>
      <path d="M398.748-1.479c-0.498,0.308-0.769,0.603-1.036,0.599c-0.207-0.003-0.604-0.425-0.568-0.579&#10;&#9;&#9;&#9;c0.063-0.273,0.369-0.641,0.617-0.678C397.986-2.17,398.27-1.817,398.748-1.479z"/>
      <path d="M176.607-486.566c0.309,0.422,0.492,0.674,0.678,0.926c-0.268,0.18-0.527,0.479-0.806,0.498&#10;&#9;&#9;&#9;c-0.193,0.014-0.604-0.392-0.577-0.551C175.947-485.958,176.268-486.175,176.607-486.566z"/>
      <path d="M56.086-287.559c-0.5,0.313-0.803,0.648-1.029,0.604c-0.247-0.05-0.531-0.428-0.59-0.707&#10;&#9;&#9;&#9;c-0.029-0.145,0.396-0.547,0.609-0.541C55.342-288.195,55.6-287.889,56.086-287.559z"/>
      <path d="M25.755-336.053c-0.509,0.297-0.821,0.625-1.048,0.574c-0.245-0.056-0.518-0.447-0.566-0.729&#10;&#9;&#9;&#9;c-0.025-0.147,0.414-0.537,0.624-0.523C25.031-336.713,25.28-336.398,25.755-336.053z"/>
      <path d="M2.454-212.764c0.354,0.47,0.674,0.712,0.696,0.979c0.018,0.211-0.364,0.658-0.51,0.635&#10;&#9;&#9;&#9;c-0.284-0.046-0.682-0.308-0.742-0.554C1.842-211.929,2.165-212.249,2.454-212.764z"/>
      <path d="M484.653-212.861c-0.453,0.359-0.716,0.726-0.946,0.706c-0.247-0.021-0.574-0.373-0.65-0.642&#10;&#9;&#9;&#9;c-0.043-0.153,0.334-0.594,0.542-0.607C483.864-213.423,484.149-213.14,484.653-212.861z"/>
      <path d="M394.665-452.385c-0.295-0.473-0.627-0.771-0.585-1.002c0.046-0.248,0.448-0.607,0.681-0.597&#10;&#9;&#9;&#9;c0.226,0.011,0.589,0.421,0.602,0.671C395.374-453.076,395.011-452.819,394.665-452.385z"/>
      <path d="M294.643-75.328c-0.489,0.335-0.776,0.683-1.005,0.647c-0.249-0.04-0.549-0.407-0.616-0.684&#10;&#9;&#9;&#9;c-0.035-0.146,0.373-0.564,0.583-0.566C293.872-75.934,294.143-75.639,294.643-75.328z"/>
      <path d="M52.005-475.432c-0.286-0.535-0.584-0.84-0.544-1.089c0.041-0.256,0.414-0.458,0.641-0.683&#10;&#9;&#9;&#9;c0.199,0.248,0.543,0.492,0.555,0.748C52.667-476.199,52.342-475.93,52.005-475.432z"/>
      <path d="M456.295-342.1c0.356,0.404,0.723,0.646,0.696,0.829c-0.041,0.274-0.315,0.601-0.575,0.72&#10;&#9;&#9;&#9;c-0.122,0.057-0.612-0.304-0.63-0.503C455.763-341.317,456.038-341.608,456.295-342.1z"/>
      <path d="M436.101-308.757c-0.477,0.277-0.753,0.563-1.016,0.552c-0.2-0.01-0.582-0.478-0.532-0.6&#10;&#9;&#9;&#9;c0.107-0.265,0.415-0.556,0.687-0.609C435.42-309.449,435.679-309.096,436.101-308.757z"/>
      <path d="M214.73-397.716c-0.451,0.29-0.737,0.608-0.916,0.558c-0.262-0.077-0.446-0.418-0.664-0.646&#10;&#9;&#9;&#9;c0.207-0.195,0.424-0.556,0.621-0.546C214.033-398.336,214.281-398.033,214.73-397.716z"/>
      <path d="M388.675-282.559c-0.32-0.477-0.66-0.762-0.627-0.992c0.035-0.242,0.402-0.538,0.673-0.602&#10;&#9;&#9;&#9;c0.146-0.034,0.557,0.371,0.556,0.576C389.274-283.31,388.981-283.045,388.675-282.559z"/>
      <path d="M381.474-217.894c-0.286-0.492-0.613-0.809-0.556-1.022c0.063-0.24,0.463-0.497,0.742-0.53&#10;&#9;&#9;&#9;c0.156-0.019,0.532,0.416,0.511,0.615C382.143-218.567,381.823-218.335,381.474-217.894z"/>
    </g>
  </pattern>
  <g transform="matrix(0, 1, -1, 0, 1000, 0.000004)" id="Background">
    <g>
      <rect fill="#56CAD4" width="1600" height="1000"/>
      <g id="noise">
        <g opacity="0.7">
          <pattern id="SVGID_1_" patternTransform="matrix(1.0193 0 0 1.0299 39.4043 -814.7412)" opacity="0.7" xlink:href="#Motivo_nuevo"/>
          <rect fill="url(#SVGID_1_)" width="1600" height="1000"/>
          <pattern id="SVGID_2_" patternTransform="matrix(-4.455677e-008 -1.0193 1.0299 -4.501637e-008 921.0879 -15173.8916)" opacity="0.7" xlink:href="#Motivo_nuevo_2"/>
          <rect opacity="0.6" fill="url(#SVGID_2_)" width="1600" height="1000"/>
        </g>
        <radialGradient id="SVGID_3_" cx="1254.757" cy="1406.579" r="1055.0254" gradientTransform="matrix(-0.151746, -0.852972, 0.67195, -0.11954, -51.690516, 1776.481589)" gradientUnits="userSpaceOnUse" spreadMethod="pad">
          <stop offset="1" style="stop-color:#110A0C;stop-opacity:0"/>
          <stop offset="1" style="stop-color:#110A0C;stop-opacity:0.95"/>
        </radialGradient>
        <rect opacity="0.6" fill="url(#SVGID_3_)" width="1600" height="1000" id="gradient"/>
      </g>
    </g>
  </g>
</svg>